<svg id="Layer_1" data-name="Layer 1" xmlns="http://www.w3.org/2000/svg" viewBox="0 0 196 81"><defs><style>.cls-1{fill:#5d5e5e;}.cls-2{fill:#be202e;}</style></defs><title>ARISA</title><g id="_Group_" data-name="&lt;Group&gt;"><g id="_Group_2" data-name="&lt;Group&gt;"><path id="_Compound_Path_" data-name="&lt;Compound Path&gt;" class="cls-1" d="M69.71,76.85a4.17,4.17,0,0,1-1.06.85,2.66,2.66,0,0,1-1.34.35,3.22,3.22,0,0,1-2.26-.91,3.11,3.11,0,0,1-.69-1,3.19,3.19,0,0,1-.25-1.28,3.24,3.24,0,0,1,.25-1.26,3.21,3.21,0,0,1,.68-1,3.17,3.17,0,0,1,1-.69,3.24,3.24,0,0,1,1.29-.25,2.94,2.94,0,0,1,1.22.26,3.36,3.36,0,0,1,1.72,1.72,3.06,3.06,0,0,1,.26,1.25v2.81a.41.41,0,1,1-.83,0Zm0-2a2.37,2.37,0,0,0-.19-.93,2.37,2.37,0,0,0-1.28-1.28,2.36,2.36,0,0,0-.93-.19,2.31,2.31,0,0,0-.93.19,2.41,2.41,0,0,0-.76.51,2.39,2.39,0,0,0-.51.77,2.36,2.36,0,0,0-.19.93,2.31,2.31,0,0,0,.19.93,2.41,2.41,0,0,0,1.27,1.27,2.38,2.38,0,0,0,1.83,0,2.4,2.4,0,0,0,1.27-1.25A2.66,2.66,0,0,0,69.71,74.85Z"/><path id="_Compound_Path_2" data-name="&lt;Compound Path&gt;" class="cls-1" d="M71.41,72a.41.41,0,1,1,.83,0v.17a2.46,2.46,0,0,1,.71-.43,2.27,2.27,0,0,1,.85-.16,2.37,2.37,0,0,1,.93.19A2.37,2.37,0,0,1,76,73.06a2.36,2.36,0,0,1,.19.93v3.66a.41.41,0,1,1-.83,0V74a1.48,1.48,0,0,0-.13-.61,1.64,1.64,0,0,0-.34-.5,1.56,1.56,0,0,0-1.11-.45,1.51,1.51,0,0,0-.6.12,1.68,1.68,0,0,0-.49.32,1.43,1.43,0,0,0-.33.47,1.6,1.6,0,0,0-.13.58v3.73a.41.41,0,1,1-.83,0Z"/><path id="_Compound_Path_3" data-name="&lt;Compound Path&gt;" class="cls-1" d="M82.4,70a.41.41,0,1,1,.83,0v7.69a.41.41,0,1,1-.83,0V77l-.12.12a3.19,3.19,0,0,1-1,.67,3.24,3.24,0,0,1-1.24.24,3.18,3.18,0,0,1-2.28-.95,3.35,3.35,0,0,1-.69-1,3.14,3.14,0,0,1,0-2.48,3.36,3.36,0,0,1,1.72-1.72A2.94,2.94,0,0,1,80,71.62a2.89,2.89,0,0,1,1.36.38,4.39,4.39,0,0,1,1.05.83Zm0,4.89a2.71,2.71,0,0,0-.22-1,2.46,2.46,0,0,0-.51-.76A2.33,2.33,0,0,0,80,72.46a2.36,2.36,0,0,0-.93.19,2.37,2.37,0,0,0-1.28,1.28,2.36,2.36,0,0,0-.19.93,2.31,2.31,0,0,0,.19.93,2.39,2.39,0,0,0,1.28,1.27,2.36,2.36,0,0,0,.93.19,2.31,2.31,0,0,0,.93-.19,2.41,2.41,0,0,0,1.27-1.27A2.32,2.32,0,0,0,82.4,74.85Z"/></g><g id="_Group_3" data-name="&lt;Group&gt;"><path id="_Compound_Path_4" data-name="&lt;Compound Path&gt;" class="cls-1" d="M.92,68.2a.5.5,0,0,1,.5-.5H6.35a.5.5,0,1,1,0,1H1.92v3.62h3a.5.5,0,1,1,0,1h-3v3.73H6.35a.5.5,0,1,1,0,1H1.42a.5.5,0,0,1-.5-.5Z"/><path id="_Compound_Path_5" data-name="&lt;Compound Path&gt;" class="cls-1" d="M8.28,68.2a.5.5,0,1,1,1,0v9.36a.5.5,0,1,1-1,0Z"/><path id="_Compound_Path_6" data-name="&lt;Compound Path&gt;" class="cls-1" d="M11.14,74.62a2.73,2.73,0,0,0,.34,1A2.93,2.93,0,0,0,13,76.87a2.93,2.93,0,0,0,2.14,0,3,3,0,0,0,.92-.61.5.5,0,0,1,.71.71,3,3,0,0,1-1.21.85A4.41,4.41,0,0,1,14,78a3.92,3.92,0,0,1-2.76-1.1,3.78,3.78,0,0,1-.84-1.23,3.88,3.88,0,0,1-.31-1.56,3.85,3.85,0,0,1,1.13-2.75,4,4,0,0,1,1.25-.84A4.27,4.27,0,0,1,14,70.21a3.63,3.63,0,0,1,1.47.31,4,4,0,0,1,1.24.84,4.25,4.25,0,0,1,.86,1.24,3.59,3.59,0,0,1,.32,1.52.45.45,0,0,1-.16.37.54.54,0,0,1-.34.13Zm5.74-1a2.92,2.92,0,0,0-.36-.94,2.88,2.88,0,0,0-.64-.75,3.11,3.11,0,0,0-.86-.5,2.85,2.85,0,0,0-2,0,3.1,3.1,0,0,0-.86.5,2.74,2.74,0,0,0-.63.75,3,3,0,0,0-.35.94Z"/><path id="_Compound_Path_7" data-name="&lt;Compound Path&gt;" class="cls-1" d="M22.43,70.23a3.31,3.31,0,0,1,1.17.19,4.31,4.31,0,0,1,.89.45,2.61,2.61,0,0,1,.58.5.74.74,0,0,1,.2.38.4.4,0,0,1-.15.31.48.48,0,0,1-.32.13.49.49,0,0,1-.36-.15,3.38,3.38,0,0,0-.92-.58,2.85,2.85,0,0,0-1.12-.22,2.82,2.82,0,0,0-1.13.23,2.94,2.94,0,0,0-.92.62,2.91,2.91,0,0,0-.62.93,2.87,2.87,0,0,0-.23,1.14,2.81,2.81,0,0,0,.23,1.13,2.93,2.93,0,0,0,1.55,1.55,2.81,2.81,0,0,0,1.13.23,2.85,2.85,0,0,0,1.12-.22,3,3,0,0,0,.92-.61.49.49,0,0,1,.36-.15.51.51,0,0,1,.35.14.45.45,0,0,1,.15.35.77.77,0,0,1-.19.38,2.15,2.15,0,0,1-.56.49,3.92,3.92,0,0,1-.92.42,4,4,0,0,1-1.24.18A3.92,3.92,0,0,1,19.64,77a3.78,3.78,0,0,1-.84-1.23,3.88,3.88,0,0,1-.31-1.56,3.86,3.86,0,0,1,1.13-2.75,4,4,0,0,1,1.25-.84A4.28,4.28,0,0,1,22.43,70.23Z"/><path id="_Compound_Path_8" data-name="&lt;Compound Path&gt;" class="cls-1" d="M26.68,68.2a.5.5,0,1,1,1,0v2h1.08a.49.49,0,0,1,.36.15.51.51,0,0,1,0,.71.49.49,0,0,1-.36.15H27.69v6.38a.49.49,0,0,1-.14.36.5.5,0,0,1-.7,0,.49.49,0,0,1-.14-.36V71.19H25.61a.49.49,0,0,1-.36-.15.5.5,0,0,1,.36-.86h1.07Z"/><path id="_Compound_Path_9" data-name="&lt;Compound Path&gt;" class="cls-1" d="M29.86,70.68a.5.5,0,1,1,1,0v.79a4.24,4.24,0,0,1,1.25-.93,3.5,3.5,0,0,1,1.59-.37.58.58,0,0,1,.41.15.49.49,0,0,1,0,.71.58.58,0,0,1-.41.15,2.61,2.61,0,0,0-1.09.23,2.89,2.89,0,0,0-.88.62,3.2,3.2,0,0,0-.62.89A2.64,2.64,0,0,0,30.86,74v3.59a.5.5,0,1,1-1,0Z"/><path id="_Compound_Path_10" data-name="&lt;Compound Path&gt;" class="cls-1" d="M38.23,70.21a3.59,3.59,0,0,1,1.48.32,4.09,4.09,0,0,1,2.09,2.1,3.82,3.82,0,0,1,0,3A4.07,4.07,0,0,1,41,76.9,3.87,3.87,0,0,1,38.2,78a3.92,3.92,0,0,1-2.76-1.1,3.78,3.78,0,0,1-.84-1.23,3.88,3.88,0,0,1-.31-1.56,3.85,3.85,0,0,1,1.13-2.75,4,4,0,0,1,1.25-.84A4.27,4.27,0,0,1,38.23,70.21Zm0,1a2.82,2.82,0,0,0-1.13.23A2.91,2.91,0,0,0,35.52,73a2.88,2.88,0,0,0-.23,1.14,2.82,2.82,0,0,0,.23,1.13,2.93,2.93,0,0,0,1.55,1.55,2.81,2.81,0,0,0,1.13.23,2.87,2.87,0,0,0,1.14-.23,2.91,2.91,0,0,0,.93-.62,2.94,2.94,0,0,0,.62-.92,2.82,2.82,0,0,0,.23-1.13A2.88,2.88,0,0,0,40.89,73a2.89,2.89,0,0,0-1.56-1.56A2.88,2.88,0,0,0,38.2,71.23Z"/><path id="_Compound_Path_11" data-name="&lt;Compound Path&gt;" class="cls-1" d="M42.87,70.68a.5.5,0,1,1,1,0v.21a3,3,0,0,1,.86-.52,2.77,2.77,0,0,1,1-.19,2.88,2.88,0,0,1,1.14.23A2.89,2.89,0,0,1,48.47,72a2.88,2.88,0,0,1,.23,1.14v4.46a.5.5,0,1,1-1,0V73.1a1.81,1.81,0,0,0-.15-.74,2,2,0,0,0-.41-.61,1.9,1.9,0,0,0-1.35-.55,1.83,1.83,0,0,0-.73.15,2,2,0,0,0-.6.39,1.74,1.74,0,0,0-.41.58,2,2,0,0,0-.16.71v4.54a.5.5,0,1,1-1,0Z"/><path id="_Compound_Path_12" data-name="&lt;Compound Path&gt;" class="cls-1" d="M49.67,68.36a.66.66,0,1,1,.19.47A.64.64,0,0,1,49.67,68.36Zm.16,2.32a.5.5,0,1,1,1,0v6.88a.5.5,0,1,1-1,0Z"/><path id="_Compound_Path_13" data-name="&lt;Compound Path&gt;" class="cls-1" d="M55.56,70.23a3.31,3.31,0,0,1,1.17.19,4.31,4.31,0,0,1,.89.45,2.61,2.61,0,0,1,.58.5.74.74,0,0,1,.2.38.4.4,0,0,1-.15.31.48.48,0,0,1-.32.13.49.49,0,0,1-.36-.15,3.38,3.38,0,0,0-.92-.58,2.85,2.85,0,0,0-1.12-.22,2.82,2.82,0,0,0-1.13.23,2.94,2.94,0,0,0-.92.62,2.91,2.91,0,0,0-.62.93,2.87,2.87,0,0,0-.23,1.14,2.81,2.81,0,0,0,.23,1.13,2.93,2.93,0,0,0,1.55,1.55,2.81,2.81,0,0,0,1.13.23,2.85,2.85,0,0,0,1.12-.22,3,3,0,0,0,.92-.61.49.49,0,0,1,.36-.15.51.51,0,0,1,.35.14.45.45,0,0,1,.15.35.77.77,0,0,1-.19.38,2.15,2.15,0,0,1-.56.49,3.92,3.92,0,0,1-.92.42,4,4,0,0,1-1.24.18A3.92,3.92,0,0,1,52.77,77a3.78,3.78,0,0,1-.84-1.23,3.88,3.88,0,0,1-.31-1.56,3.86,3.86,0,0,1,1.13-2.75A4,4,0,0,1,54,70.58,4.28,4.28,0,0,1,55.56,70.23Z"/></g><g id="_Group_4" data-name="&lt;Group&gt;"><path id="_Compound_Path_14" data-name="&lt;Compound Path&gt;" class="cls-1" d="M88.76,68.2a.5.5,0,1,1,1,0v4.56h5.17V68.2a.5.5,0,1,1,1,0v9.36a.5.5,0,1,1-1,0v-3.8H89.77v3.8a.5.5,0,1,1-1,0Z"/><path id="_Compound_Path_15" data-name="&lt;Compound Path&gt;" class="cls-1" d="M101.3,70.21a3.59,3.59,0,0,1,1.48.32,4.09,4.09,0,0,1,2.09,2.1,3.82,3.82,0,0,1,0,3A4.07,4.07,0,0,1,104,76.9,3.87,3.87,0,0,1,101.27,78a3.92,3.92,0,0,1-2.76-1.1,3.78,3.78,0,0,1-.84-1.23,3.88,3.88,0,0,1-.31-1.56,3.85,3.85,0,0,1,1.13-2.75,4,4,0,0,1,1.25-.84A4.27,4.27,0,0,1,101.3,70.21Zm0,1a2.82,2.82,0,0,0-1.13.23A2.91,2.91,0,0,0,98.59,73a2.88,2.88,0,0,0-.23,1.14,2.82,2.82,0,0,0,.23,1.13,2.93,2.93,0,0,0,1.55,1.55,2.81,2.81,0,0,0,1.13.23,2.87,2.87,0,0,0,1.14-.23,2.91,2.91,0,0,0,.93-.62,2.94,2.94,0,0,0,.62-.92,2.82,2.82,0,0,0,.23-1.13A2.88,2.88,0,0,0,104,73a2.89,2.89,0,0,0-1.56-1.56A2.88,2.88,0,0,0,101.27,71.23Z"/><path id="_Compound_Path_16" data-name="&lt;Compound Path&gt;" class="cls-1" d="M106,70.68a.5.5,0,1,1,1,0v.18a2.82,2.82,0,0,1,.72-.5,2,2,0,0,1,.92-.23,2.54,2.54,0,0,1,1.23.3,2.66,2.66,0,0,1,.91.8,2.81,2.81,0,0,1,.92-.8,2.54,2.54,0,0,1,1.23-.3,2.59,2.59,0,0,1,1,.21,2.65,2.65,0,0,1,1.41,1.41,2.58,2.58,0,0,1,.21,1v4.77a.5.5,0,1,1-1,0V72.79a1.6,1.6,0,0,0-.13-.64,1.68,1.68,0,0,0-.88-.88,1.62,1.62,0,0,0-1.8.36,1.76,1.76,0,0,0-.35.53,1.59,1.59,0,0,0-.13.64v4.77a.5.5,0,1,1-1,0V72.79a1.71,1.71,0,0,0-.51-1.18,1.57,1.57,0,0,0-1.14-.47,1.55,1.55,0,0,0-1.14.46,1.65,1.65,0,0,0-.49,1.13v4.83a.5.5,0,1,1-1,0Z"/><path id="_Compound_Path_17" data-name="&lt;Compound Path&gt;" class="cls-1" d="M117.38,74.62a2.73,2.73,0,0,0,.34,1,2.93,2.93,0,0,0,1.51,1.28,2.93,2.93,0,0,0,2.14,0,3,3,0,0,0,.92-.61.5.5,0,0,1,.71.71,3,3,0,0,1-1.21.85,4.41,4.41,0,0,1-1.55.25,3.92,3.92,0,0,1-2.76-1.1,3.78,3.78,0,0,1-.84-1.23,3.88,3.88,0,0,1-.31-1.56,3.85,3.85,0,0,1,1.13-2.75,4,4,0,0,1,1.25-.84,4.27,4.27,0,0,1,1.57-.35,3.63,3.63,0,0,1,1.47.31,4,4,0,0,1,1.24.84,4.25,4.25,0,0,1,.86,1.24,3.59,3.59,0,0,1,.32,1.52.45.45,0,0,1-.16.37.54.54,0,0,1-.34.13Zm5.74-1a2.92,2.92,0,0,0-.36-.94,2.88,2.88,0,0,0-.64-.75,3.11,3.11,0,0,0-.86-.5,2.85,2.85,0,0,0-2,0,3.1,3.1,0,0,0-.86.5,2.74,2.74,0,0,0-.63.75,3,3,0,0,0-.35.94Z"/><path id="_Compound_Path_18" data-name="&lt;Compound Path&gt;" class="cls-1" d="M131.94,68.07a.68.68,0,0,1,.18-.25.42.42,0,0,1,.29-.12.43.43,0,0,1,.29.11.75.75,0,0,1,.19.26l4,9.3a.46.46,0,0,1,0,.19.5.5,0,0,1-.13.34.45.45,0,0,1-.36.15.47.47,0,0,1-.47-.31l-1.3-3h-4.56l-1.3,3a.5.5,0,0,1-.19.23.51.51,0,0,1-.28.08.49.49,0,0,1-.5-.49.43.43,0,0,1,0-.19Zm.47,1.51-1.85,4.19h3.68Z"/><path id="_Compound_Path_19" data-name="&lt;Compound Path&gt;" class="cls-1" d="M137.35,70.68a.5.5,0,1,1,1,0v.81a3.73,3.73,0,0,1,1.28-.93,3.94,3.94,0,0,1,1.62-.33A3.87,3.87,0,0,1,144,71.38a4.08,4.08,0,0,1,.84,1.24,3.82,3.82,0,0,1,0,3,4.09,4.09,0,0,1-2.09,2.1,3.59,3.59,0,0,1-1.48.32,3.51,3.51,0,0,1-1.65-.46,5.32,5.32,0,0,1-1.28-1V80.5a.5.5,0,1,1-1,0Zm1,3.44a3,3,0,0,0,.26,1.17,3.12,3.12,0,0,0,.63.92,2.83,2.83,0,0,0,2,.83,2.88,2.88,0,0,0,1.14-.23,2.89,2.89,0,0,0,1.56-1.56,2.88,2.88,0,0,0,.23-1.14,2.82,2.82,0,0,0-.23-1.13,2.91,2.91,0,0,0-1.56-1.55,2.88,2.88,0,0,0-1.14-.23,2.81,2.81,0,0,0-1.1.22,3,3,0,0,0-.91.59,3,3,0,0,0-.63.88,2.69,2.69,0,0,0-.26,1.1Z"/><path id="_Compound_Path_20" data-name="&lt;Compound Path&gt;" class="cls-1" d="M145.75,70.68a.5.5,0,1,1,1,0v.81a3.73,3.73,0,0,1,1.28-.93,3.94,3.94,0,0,1,1.62-.33,3.87,3.87,0,0,1,2.78,1.15,4.08,4.08,0,0,1,.84,1.24,3.82,3.82,0,0,1,0,3,4.09,4.09,0,0,1-2.09,2.1,3.59,3.59,0,0,1-1.48.32A3.51,3.51,0,0,1,148,77.6a5.32,5.32,0,0,1-1.28-1V80.5a.5.5,0,1,1-1,0Zm1,3.44a3,3,0,0,0,.26,1.17,3.12,3.12,0,0,0,.63.92,2.83,2.83,0,0,0,2,.83,2.88,2.88,0,0,0,1.14-.23,2.89,2.89,0,0,0,1.56-1.56,2.88,2.88,0,0,0,.23-1.14,2.82,2.82,0,0,0-.23-1.13,2.91,2.91,0,0,0-1.56-1.55,2.88,2.88,0,0,0-1.14-.23,2.81,2.81,0,0,0-1.1.22,3,3,0,0,0-.91.59,3,3,0,0,0-.63.88,2.69,2.69,0,0,0-.26,1.1Z"/><path id="_Compound_Path_21" data-name="&lt;Compound Path&gt;" class="cls-1" d="M154.36,68.2a.5.5,0,1,1,1,0v9.36a.5.5,0,1,1-1,0Z"/><path id="_Compound_Path_22" data-name="&lt;Compound Path&gt;" class="cls-1" d="M156.39,68.36a.66.66,0,1,1,.19.47A.64.64,0,0,1,156.39,68.36Zm.16,2.32a.5.5,0,1,1,1,0v6.88a.5.5,0,1,1-1,0Z"/><path id="_Compound_Path_23" data-name="&lt;Compound Path&gt;" class="cls-1" d="M165.17,76.59a5.08,5.08,0,0,1-1.29,1,3.24,3.24,0,0,1-1.63.43,3.92,3.92,0,0,1-2.76-1.1,3.79,3.79,0,0,1-.84-1.23,3.88,3.88,0,0,1-.31-1.56,4,4,0,0,1,.3-1.53,3.91,3.91,0,0,1,.83-1.26,3.86,3.86,0,0,1,1.25-.84,4,4,0,0,1,1.57-.31,3.59,3.59,0,0,1,1.48.32,4.09,4.09,0,0,1,2.09,2.1,3.72,3.72,0,0,1,.32,1.52v3.42a.5.5,0,1,1-1,0Zm0-2.43a2.88,2.88,0,0,0-.23-1.14,2.89,2.89,0,0,0-1.56-1.56,2.88,2.88,0,0,0-1.14-.23,2.82,2.82,0,0,0-1.13.23,2.94,2.94,0,0,0-.92.62,2.91,2.91,0,0,0-.62.93,2.87,2.87,0,0,0-.23,1.14,2.81,2.81,0,0,0,.23,1.13,2.93,2.93,0,0,0,1.55,1.55,2.9,2.9,0,0,0,2.23,0,2.92,2.92,0,0,0,.92-.61,3,3,0,0,0,.63-.92A3.23,3.23,0,0,0,165.17,74.15Z"/><path id="_Compound_Path_24" data-name="&lt;Compound Path&gt;" class="cls-1" d="M167.23,70.68a.5.5,0,1,1,1,0v.21a3,3,0,0,1,.86-.52,2.77,2.77,0,0,1,1-.19,2.88,2.88,0,0,1,1.14.23A2.89,2.89,0,0,1,172.82,72a2.88,2.88,0,0,1,.23,1.14v4.46a.5.5,0,1,1-1,0V73.1a1.81,1.81,0,0,0-.15-.74,2,2,0,0,0-.41-.61,1.9,1.9,0,0,0-1.35-.55,1.83,1.83,0,0,0-.73.15,2,2,0,0,0-.6.39,1.74,1.74,0,0,0-.41.58,2,2,0,0,0-.16.71v4.54a.5.5,0,1,1-1,0Z"/><path id="_Compound_Path_25" data-name="&lt;Compound Path&gt;" class="cls-1" d="M177.79,70.23a3.31,3.31,0,0,1,1.17.19,4.31,4.31,0,0,1,.89.45,2.61,2.61,0,0,1,.58.5.74.74,0,0,1,.2.38.4.4,0,0,1-.15.31.48.48,0,0,1-.32.13.49.49,0,0,1-.36-.15,3.38,3.38,0,0,0-.92-.58,2.85,2.85,0,0,0-1.12-.22,2.82,2.82,0,0,0-1.13.23,2.94,2.94,0,0,0-.92.62,2.91,2.91,0,0,0-.62.93,2.87,2.87,0,0,0-.23,1.14,2.81,2.81,0,0,0,.23,1.13,2.93,2.93,0,0,0,1.55,1.55,2.81,2.81,0,0,0,1.13.23,2.85,2.85,0,0,0,1.12-.22,3,3,0,0,0,.92-.61.49.49,0,0,1,.36-.15.51.51,0,0,1,.35.14.45.45,0,0,1,.15.35.77.77,0,0,1-.19.38,2.15,2.15,0,0,1-.56.49,3.92,3.92,0,0,1-.92.42,4,4,0,0,1-1.24.18A3.92,3.92,0,0,1,175,77a3.78,3.78,0,0,1-.84-1.23,3.88,3.88,0,0,1-.31-1.56A3.86,3.86,0,0,1,175,71.42a4,4,0,0,1,1.25-.84A4.28,4.28,0,0,1,177.79,70.23Z"/><path id="_Compound_Path_26" data-name="&lt;Compound Path&gt;" class="cls-1" d="M182.25,74.62a2.73,2.73,0,0,0,.34,1,2.93,2.93,0,0,0,1.51,1.28,2.93,2.93,0,0,0,2.14,0,3,3,0,0,0,.92-.61.5.5,0,0,1,.71.71,3,3,0,0,1-1.21.85,4.41,4.41,0,0,1-1.55.25,3.92,3.92,0,0,1-2.76-1.1,3.78,3.78,0,0,1-.84-1.23,3.88,3.88,0,0,1-.31-1.56,3.85,3.85,0,0,1,1.13-2.75,4,4,0,0,1,1.25-.84,4.27,4.27,0,0,1,1.57-.35,3.63,3.63,0,0,1,1.47.31,4,4,0,0,1,1.24.84,4.25,4.25,0,0,1,.86,1.24,3.59,3.59,0,0,1,.32,1.52.45.45,0,0,1-.16.37.54.54,0,0,1-.34.13Zm5.74-1a2.92,2.92,0,0,0-.36-.94,2.88,2.88,0,0,0-.64-.75,3.11,3.11,0,0,0-.86-.5,2.85,2.85,0,0,0-2,0,3.1,3.1,0,0,0-.86.5,2.74,2.74,0,0,0-.63.75,3,3,0,0,0-.35.94Z"/><path id="_Compound_Path_27" data-name="&lt;Compound Path&gt;" class="cls-1" d="M189.55,72.24a1.78,1.78,0,0,1,.83-1.59,2.55,2.55,0,0,1,.84-.35,4.3,4.3,0,0,1,.94-.11,4.17,4.17,0,0,1,.83.09,3.5,3.5,0,0,1,.81.27,2,2,0,0,1,.62.44.87.87,0,0,1,.24.62.59.59,0,0,1-.12.35.45.45,0,0,1-.4.17.51.51,0,0,1-.47-.36,1,1,0,0,0-.57-.46,2.73,2.73,0,0,0-.94-.15,4,4,0,0,0-.56,0,1.53,1.53,0,0,0-.51.16,1.12,1.12,0,0,0-.38.33.91.91,0,0,0-.15.55.62.62,0,0,0,.15.42,1.28,1.28,0,0,0,.39.3,2.18,2.18,0,0,0,.52.19l.54.11a6.51,6.51,0,0,1,1.13.28,3.57,3.57,0,0,1,.92.48,2.29,2.29,0,0,1,.63.7,1.84,1.84,0,0,1,.24.94,2.13,2.13,0,0,1-.23,1,2.3,2.3,0,0,1-.62.76,2.89,2.89,0,0,1-.93.49,3.72,3.72,0,0,1-1.14.17,3.37,3.37,0,0,1-1.79-.47,2.28,2.28,0,0,1-1-1.3.49.49,0,0,1,0-.15.56.56,0,0,1,.14-.37.46.46,0,0,1,.37-.16.51.51,0,0,1,.32.11.73.73,0,0,1,.22.28,1.5,1.5,0,0,0,.72.79,2.29,2.29,0,0,0,1.08.27,2.43,2.43,0,0,0,1.35-.37,1.16,1.16,0,0,0,.56-1,1.08,1.08,0,0,0-.55-.91,3.19,3.19,0,0,0-1.36-.49,4.52,4.52,0,0,1-1.89-.64A1.56,1.56,0,0,1,189.55,72.24Z"/></g><g id="_Group_5" data-name="&lt;Group&gt;"><path id="_Compound_Path_28" data-name="&lt;Compound Path&gt;" class="cls-2" d="M23.58,0,1.46,55.42l5.07,2,4.34-10.9h27.9l4.34,10.9,5.07-2L26.06,0ZM13.14,40.79,24.71,11.62h.21L36.49,40.79l-.1.21h-23Z"/><path id="_Path_" data-name="&lt;Path&gt;" class="cls-2" d="M94.17,51.89l-1.86,5.72q-10.55-1-27.19-19.3l.52-1a23.91,23.91,0,0,0,3.72.31q7.85,0,12.51-5.19a15.32,15.32,0,0,0,3.82-10.27,15.59,15.59,0,0,0-4.39-11A13.74,13.74,0,0,0,70.91,6.43H60.78V56.88H54.89V1.14h16A19.68,19.68,0,0,1,85.44,7.28a20.43,20.43,0,0,1,6,14.87,21,21,0,0,1-4.55,13.1A18.19,18.19,0,0,1,76.8,42l-.1.32a70.16,70.16,0,0,0,5.78,4.37q6.72,4.57,11.68,5.2"/><rect id="_Path_2" data-name="&lt;Path&gt;" class="cls-2" x="103.52" y="1.14" width="5.89" height="55.84"/><path id="_Path_3" data-name="&lt;Path&gt;" class="cls-2" d="M145,39.23q0,6.85-5.48,12.56a18.86,18.86,0,0,1-13.95,6A21.7,21.7,0,0,1,117.21,56l1.14-5.61a13.66,13.66,0,0,0,6.82,1.87,13.92,13.92,0,0,0,10.13-4.46q4.13-4.15,3.93-8.52Q139,34,132.93,28.65,123,20,122.9,19.93a11.34,11.34,0,0,1-1.86-12q3-7.67,12-7.68a30.38,30.38,0,0,1,7.55,1.14l-.93,5.71a31.12,31.12,0,0,0-6.51-1q-5.07,0-6.83,4.26a6.45,6.45,0,0,0-.41,2.18q0,3.11,5,7.06,8,6.44,9.2,7.78a17.28,17.28,0,0,1,5,11.94"/><path id="_Compound_Path_29" data-name="&lt;Compound Path&gt;" class="cls-2" d="M180.8,40.79,169.22,11.62H169L157.45,40.79l.2.21H180.7Zm11.68,14.64-5.06,2-4.34-10.9H155.17l-4.34,10.9-5.06-2L167.88,0h2.48Z"/><g id="_Group_6" data-name="&lt;Group&gt;"><path id="_Compound_Path_30" data-name="&lt;Compound Path&gt;" class="cls-2" d="M187.74.29a4.85,4.85,0,0,1,2.33.62,4.36,4.36,0,0,1,1.77,1.76,4.81,4.81,0,0,1,0,4.76,4.42,4.42,0,0,1-1.76,1.76,4.76,4.76,0,0,1-4.73,0,4.43,4.43,0,0,1-1.76-1.76,4.78,4.78,0,0,1,0-4.76A4.39,4.39,0,0,1,185.4.91,4.84,4.84,0,0,1,187.74.29Zm0,.79a4,4,0,0,0-1.95.51,3.68,3.68,0,0,0-1.48,1.47,4,4,0,0,0,0,4,3.74,3.74,0,0,0,1.47,1.47,3.94,3.94,0,0,0,3.94,0A3.73,3.73,0,0,0,191.17,7a4,4,0,0,0,0-4,3.64,3.64,0,0,0-1.48-1.47A4,4,0,0,0,187.74,1.08Zm-2.3,6.73V2.31h2a5,5,0,0,1,1.47.15,1.4,1.4,0,0,1,.72.53,1.36,1.36,0,0,1,.27.81,1.44,1.44,0,0,1-.45,1.05,1.82,1.82,0,0,1-1.2.5,1.61,1.61,0,0,1,.49.29,6.32,6.32,0,0,1,.85,1.09l.7,1.08h-1.14l-.51-.87a4.49,4.49,0,0,0-1-1.28,1.24,1.24,0,0,0-.75-.19h-.55V7.82Zm.8-3.1h1.13a1.88,1.88,0,0,0,1.1-.23.74.74,0,0,0,.29-.61.72.72,0,0,0-.14-.44.86.86,0,0,0-.39-.29,3.11,3.11,0,0,0-.93-.09h-1.06Z"/></g></g></g></svg>